# xmcd
#
# Track frame offsets:
#	150
#	22735
#	49050
#	72710
#	100635
#	124630
#	147923
#	168560
#	192943
#	213793
#
# Disc length: 3106 seconds
#
# Revision: 2
# Processed by: cddbd v1.5.2PL0 Copyright (c) Steve Scherf et al.
# Submitted via: EZCDAudioConverter 8.0.2.1
#
DISCID=870c200a
DTITLE=Chế Linh, Tuấn Vũ - Thành phố Buồn
DYEAR=1998
DGENRE=Contemporary Pop
TTITLE0=Tuấn Vũ - Người về đơn vị mới
TTITLE1=Chế Linh, Tuấn Vũ - Lời kẻ đăng trình
TTITLE2=Tuấn Vũ - Thành phố Buồn
TTITLE3=Chế Linh - Căn nhà dĩ vãng
TTITLE4=Tuấn Vũ - Trăng khuya
TTITLE5=Chế Linh, Tuấn Vũ - Trên bốn vùng chiến thuật
TTITLE6=Tuấn Vũ - Bươn vào đêm
TTITLE7=Chế Linh - CHuyến xe ba người
TTITLE8=Tuấn Vũ - Người tình và quê hương
TTITLE9=Chế Linh - Lời lữ khách
EXTD=
EXTT0=
EXTT1=
EXTT2=
EXTT3=
EXTT4=
EXTT5=
EXTT6=
EXTT7=
EXTT8=
EXTT9=
PLAYORDER=
